<svg xmlns="http://www.w3.org/2000/svg" viewBox="0 0 76 83" width="76" height="83">
	<style>
		tspan { white-space:pre }
		.shp0 { fill: #261f0f } 
		.shp1 { fill: #00adff } 
	</style>
	<path id="Layer" class="shp0" d="M109.38 30.15C109.23 30.57 109.04 30.98 108.82 31.37C108.61 31.77 108.37 32.15 108.1 32.5C107.82 32.86 107.53 33.2 107.21 33.51C106.89 33.83 106.54 34.12 106.18 34.38C105.82 34.64 105.44 34.86 105.04 35.06C104.64 35.26 104.23 35.42 103.8 35.55C103.38 35.69 102.95 35.78 102.51 35.85C102.07 35.91 101.62 35.94 101.18 35.93C100.29 35.94 99.4 35.81 98.55 35.56C97.7 35.31 96.88 34.93 96.14 34.44C95.4 33.96 94.73 33.36 94.16 32.67C93.6 31.99 93.13 31.22 92.79 30.4C92.67 30.12 92.57 29.83 92.48 29.54C92.39 29.24 92.32 28.95 92.26 28.65C92.2 28.34 92.16 28.04 92.13 27.74C92.1 27.43 92.09 27.13 92.09 26.82C92.08 26.23 92.12 25.64 92.23 25.05C92.34 24.47 92.51 23.9 92.73 23.36C92.96 22.81 93.24 22.29 93.57 21.8C93.9 21.31 94.28 20.85 94.71 20.44C95.47 19.71 96.34 19.12 97.29 18.69C98.25 18.26 99.27 17.99 100.31 17.9C101.36 17.81 102.41 17.9 103.42 18.16C104.44 18.42 105.4 18.85 106.27 19.44C106.64 19.7 106.98 19.99 107.31 20.31C107.63 20.62 107.92 20.97 108.19 21.33C108.45 21.7 108.68 22.08 108.89 22.49C109.09 22.89 109.26 23.31 109.39 23.74L105.57 23.74C105.36 23.33 105.09 22.95 104.78 22.62C104.46 22.29 104.1 22 103.7 21.76C103.31 21.53 102.88 21.35 102.43 21.24C101.99 21.12 101.53 21.07 101.07 21.08C100.7 21.07 100.34 21.1 99.98 21.17C99.62 21.24 99.27 21.35 98.94 21.5C98.6 21.64 98.28 21.83 97.98 22.04C97.69 22.25 97.41 22.5 97.17 22.77C96.92 23.04 96.69 23.33 96.5 23.64C96.3 23.95 96.14 24.28 96 24.62C95.87 24.96 95.77 25.31 95.7 25.68C95.64 26.04 95.61 26.4 95.61 26.77C95.61 27.05 95.62 27.33 95.66 27.61C95.69 27.89 95.75 28.16 95.82 28.43C95.89 28.7 95.98 28.97 96.09 29.23C96.2 29.49 96.33 29.74 96.47 29.98C96.61 30.22 96.77 30.44 96.94 30.66C97.11 30.87 97.3 31.07 97.5 31.26C97.71 31.45 97.92 31.62 98.15 31.77C98.38 31.93 98.62 32.06 98.87 32.18C99.04 32.27 99.22 32.34 99.4 32.4C99.58 32.47 99.76 32.52 99.95 32.57C100.14 32.61 100.33 32.64 100.52 32.66C100.71 32.68 100.9 32.69 101.09 32.69C101.54 32.71 101.99 32.66 102.43 32.56C102.86 32.45 103.28 32.28 103.67 32.05C104.06 31.83 104.42 31.55 104.73 31.22C105.04 30.9 105.3 30.53 105.51 30.13L109.38 30.15Z" />
	<path id="Layer" fill-rule="evenodd" class="shp0" d="M125.35 35.59L123.97 31.82L117.52 31.82L116.12 35.59L112.4 35.59L119.29 18.19L122.29 18.19L129.15 35.59L125.35 35.59ZM122.93 28.87L120.78 22.47L118.58 28.87L122.93 28.87Z" />
	<path id="Layer" fill-rule="evenodd" class="shp0" d="M141.19 35.59L136.31 28.51L136.31 35.59L132.88 35.59L132.88 18.19L138.78 18.19C139.19 18.17 139.6 18.18 140 18.23C140.41 18.29 140.81 18.37 141.2 18.5C141.59 18.62 141.96 18.78 142.33 18.97C142.69 19.16 143.03 19.39 143.35 19.64C143.65 19.91 143.91 20.22 144.14 20.55C144.37 20.89 144.57 21.24 144.72 21.62C144.87 21.99 144.98 22.38 145.05 22.78C145.11 23.18 145.13 23.59 145.11 23.99C145.12 24.32 145.09 24.64 145.04 24.96C144.98 25.28 144.9 25.6 144.79 25.91C144.68 26.21 144.54 26.51 144.37 26.79C144.21 27.07 144.01 27.33 143.8 27.58C143.59 27.82 143.36 28.05 143.11 28.25C142.86 28.45 142.59 28.62 142.3 28.77C142.01 28.91 141.72 29.03 141.41 29.11C141.1 29.2 140.78 29.26 140.46 29.28L145.29 35.59L141.19 35.59ZM141.75 24.11C141.77 23.89 141.75 23.67 141.71 23.45C141.67 23.23 141.59 23.02 141.49 22.83C141.39 22.63 141.27 22.45 141.12 22.28C140.97 22.12 140.8 21.98 140.61 21.86C140.41 21.76 140.21 21.67 140 21.6C139.79 21.52 139.57 21.46 139.36 21.42C139.14 21.37 138.92 21.34 138.7 21.33C138.47 21.31 138.25 21.31 138.03 21.33L136.29 21.33L136.29 26.74L138.03 26.74C138.25 26.76 138.48 26.76 138.7 26.75C138.93 26.74 139.15 26.71 139.37 26.67C139.59 26.64 139.81 26.59 140.03 26.53C140.24 26.46 140.45 26.39 140.66 26.3C140.84 26.19 141.01 26.05 141.15 25.89C141.29 25.74 141.42 25.56 141.51 25.36C141.6 25.17 141.67 24.97 141.7 24.76C141.74 24.55 141.74 24.33 141.72 24.12L141.75 24.11Z" />
	<path id="Layer" class="shp0" d="M178.03 18.19L178.03 35.59L174.67 35.59L174.67 25.87C174.67 25.48 174.69 24.9 174.74 24.12C174.79 23.34 174.81 22.76 174.81 22.37L174.81 22.37L170.17 35.59L167.8 35.59L163.1 22.33L163.1 22.33C163.1 22.72 163.12 23.3 163.17 24.08C163.22 24.86 163.24 25.44 163.24 25.83L163.24 35.55L159.88 35.55L159.88 18.19L164.72 18.19L168.97 30.81L173.22 18.19L178.03 18.19Z" />
	<path id="Layer" fill-rule="evenodd" class="shp0" d="M194.71 35.59L193.33 31.82L186.88 31.82L185.48 35.59L181.76 35.59L188.65 18.19L191.65 18.19L198.51 35.59L194.71 35.59ZM192.29 28.87L190.14 22.47L187.94 28.87L192.29 28.87Z" />
	<path id="Layer" fill-rule="evenodd" class="shp0" d="M214.66 35.64L214.62 35.59L214.66 35.59L214.66 35.64ZM210.55 35.59L205.67 28.51L205.67 35.59L202.24 35.59L202.24 18.19L208.14 18.19C208.55 18.17 208.96 18.18 209.36 18.23C209.77 18.29 210.17 18.37 210.56 18.5C210.95 18.62 211.32 18.78 211.69 18.97C212.05 19.16 212.39 19.39 212.71 19.64C213.01 19.91 213.27 20.22 213.5 20.55C213.73 20.89 213.93 21.24 214.08 21.62C214.23 21.99 214.34 22.38 214.41 22.78C214.47 23.18 214.49 23.59 214.47 23.99C214.48 24.32 214.45 24.64 214.4 24.96C214.34 25.28 214.26 25.6 214.15 25.91C214.04 26.21 213.9 26.51 213.73 26.79C213.57 27.07 213.37 27.33 213.16 27.58C212.96 27.83 212.73 28.06 212.48 28.26C212.23 28.46 211.96 28.64 211.67 28.79C211.39 28.94 211.09 29.06 210.78 29.15C210.47 29.24 210.15 29.3 209.83 29.33L214.62 35.59L210.55 35.59ZM211.11 24.11C211.13 23.89 211.11 23.67 211.07 23.45C211.03 23.23 210.95 23.02 210.85 22.83C210.75 22.63 210.63 22.45 210.48 22.28C210.33 22.12 210.16 21.98 209.97 21.86C209.77 21.76 209.57 21.67 209.36 21.59C209.16 21.51 208.94 21.45 208.73 21.4C208.51 21.36 208.29 21.33 208.07 21.31C207.85 21.29 207.63 21.29 207.41 21.3L205.67 21.3L205.67 26.71L207.41 26.71C207.63 26.73 207.85 26.74 208.08 26.73C208.3 26.72 208.52 26.7 208.74 26.67C208.96 26.64 209.18 26.6 209.4 26.54C209.61 26.48 209.82 26.41 210.03 26.33C210.21 26.22 210.38 26.08 210.52 25.92C210.66 25.77 210.79 25.59 210.88 25.39C210.97 25.2 211.04 25 211.07 24.79C211.11 24.58 211.11 24.36 211.09 24.15L211.11 24.11Z" />
	<path id="Layer" class="shp0" d="M232.68 18.19L226.31 26.84L232.76 35.59L228.58 35.59L223 27.45L223 35.59L219.51 35.59L219.51 18.19L223 18.19L223 26.41L228.82 18.19L232.68 18.19L232.68 18.19L232.68 18.19Z" />
	<path id="Layer" class="shp0" d="M246.07 35.59L236.71 35.59L236.71 18.19L246.07 18.19L246.07 21.28L240.19 21.28L240.19 25.22L246 25.22L246 28.34L240.19 28.34L240.19 32.42L246.07 32.42L246.07 35.59L246.07 35.59L246.07 35.59Z" />
	<path id="Layer" class="shp0" d="M260.51 21.31L257.08 21.31L257.08 35.59L253.58 35.59L253.58 21.31L250.14 21.31L250.14 18.19L260.51 18.19L260.51 21.31L260.51 21.31L260.51 21.31Z" />
	<path id="Layer" class="shp0" d="M266.79 35.59L263.58 35.59L263.58 32.11L266.79 32.11L266.79 35.59L266.79 35.59L266.79 35.59Z" />
	<path id="Layer" class="shp1" d="M102.18 63.41L92.83 63.41L92.83 46.01L102.18 46.01L102.18 49.1L96.31 49.1L96.31 53.04L102.11 53.04L102.11 56.16L96.31 56.16L96.31 60.24L102.18 60.24L102.18 63.41L102.18 63.41L102.18 63.41Z" />
	<path id="Layer" class="shp1" d="M121.99 63.41L118 63.41L113.99 56.93L110.03 63.41L106.09 63.41L112.03 54.37L106.52 46.01L110.51 46.01L114.08 51.86L117.57 46.01L121.58 46.01L116.09 54.42L121.99 63.41L121.99 63.41L121.99 63.41Z" />
	<path id="Layer" fill-rule="evenodd" class="shp1" d="M126.03 63.41L126.03 46.01L131.27 46.01C135.67 46.01 137.87 47.8 137.87 51.38C137.9 51.79 137.89 52.2 137.83 52.61C137.77 53.02 137.66 53.42 137.51 53.81C137.36 54.19 137.17 54.56 136.94 54.9C136.7 55.24 136.43 55.55 136.13 55.83C135.81 56.07 135.48 56.28 135.13 56.46C134.77 56.64 134.41 56.79 134.03 56.91C133.65 57.02 133.26 57.1 132.87 57.15C132.47 57.19 132.08 57.2 131.68 57.18L129.5 57.18L129.5 63.42L126.03 63.41ZM129.51 49.1L129.51 54.1L131.3 54.1C131.5 54.11 131.69 54.12 131.89 54.1C132.09 54.09 132.28 54.07 132.48 54.03C132.67 53.99 132.86 53.94 133.05 53.88C133.24 53.82 133.42 53.75 133.6 53.66C133.89 53.41 134.12 53.1 134.27 52.76C134.43 52.41 134.51 52.04 134.51 51.66C134.51 51.28 134.43 50.91 134.27 50.56C134.12 50.22 133.89 49.91 133.6 49.66C133.43 49.57 133.26 49.48 133.08 49.41C132.9 49.35 132.71 49.29 132.53 49.25C132.34 49.2 132.15 49.17 131.96 49.16C131.76 49.14 131.57 49.14 131.38 49.15L129.51 49.1Z" />
	<path id="Layer" class="shp1" d="M151.63 63.41L142.27 63.41L142.27 46.01L151.63 46.01L151.63 49.1L145.75 49.1L145.75 53.04L151.55 53.04L151.55 56.16L145.75 56.16L145.75 60.24L151.63 60.24L151.63 63.41L151.63 63.41L151.63 63.41Z" />
	<path id="Layer" fill-rule="evenodd" class="shp1" d="M165.29 63.41L160.41 56.33L160.41 63.41L157.03 63.41L157.03 46.01L162.93 46.01C163.34 45.99 163.75 46 164.15 46.05C164.56 46.11 164.96 46.19 165.35 46.32C165.74 46.44 166.11 46.6 166.48 46.79C166.84 46.98 167.18 47.21 167.5 47.46C167.8 47.73 168.06 48.04 168.29 48.37C168.52 48.71 168.72 49.06 168.87 49.44C169.02 49.81 169.13 50.2 169.2 50.6C169.26 51 169.28 51.41 169.26 51.81C169.27 52.14 169.24 52.46 169.19 52.78C169.13 53.1 169.05 53.42 168.94 53.73C168.83 54.03 168.69 54.33 168.52 54.61C168.36 54.89 168.16 55.15 167.95 55.4C167.74 55.64 167.51 55.87 167.26 56.07C167.01 56.27 166.74 56.44 166.45 56.58C166.16 56.73 165.86 56.85 165.56 56.93C165.25 57.02 164.93 57.08 164.61 57.1L169.44 63.41L165.29 63.41ZM165.85 51.93C165.87 51.71 165.85 51.49 165.81 51.27C165.77 51.05 165.69 50.84 165.59 50.65C165.49 50.45 165.37 50.27 165.22 50.1C165.07 49.94 164.9 49.8 164.71 49.68C164.51 49.58 164.31 49.49 164.1 49.41C163.9 49.33 163.68 49.27 163.47 49.22C163.25 49.18 163.03 49.15 162.81 49.13C162.59 49.11 162.37 49.11 162.15 49.12L160.41 49.12L160.41 54.53L162.15 54.53C162.37 54.55 162.6 54.55 162.82 54.54C163.05 54.53 163.27 54.5 163.49 54.46C163.71 54.43 163.93 54.38 164.15 54.32C164.36 54.25 164.57 54.18 164.78 54.09C164.96 53.98 165.13 53.84 165.27 53.68C165.41 53.53 165.54 53.35 165.63 53.15C165.72 52.96 165.79 52.76 165.82 52.55C165.86 52.34 165.86 52.12 165.84 51.91L165.85 51.93Z" />
	<path id="Layer" class="shp1" d="M182.84 49.13L179.4 49.13L179.4 63.41L175.9 63.41L175.9 49.13L172.47 49.13L172.47 46.01L182.84 46.01L182.84 49.13L182.84 49.13L182.84 49.13Z" />
	<path id="Layer" fill-rule="evenodd" class="shp1" d="M61.69 27.11C63.06 29.14 64.12 31.35 64.84 33.69C65.56 36.03 65.93 38.46 65.95 40.9C65.96 43.35 65.61 45.78 64.92 48.13C64.22 50.47 63.19 52.7 61.84 54.74L41.03 41.04L61.69 27.11Z" />
	<path id="Layer" fill-rule="evenodd" class="shp0" d="M41.03 0C44.38 0 47.71 0.41 50.95 1.22C54.2 2.03 57.33 3.23 60.29 4.8C63.24 6.38 65.99 8.3 68.47 10.54C70.96 12.78 73.16 15.32 75.03 18.09L61.66 27.09C55.52 17.99 44.15 13.98 33.66 17.22C23.17 20.45 16.04 30.18 16.1 41.15C16.16 52.13 23.4 61.77 33.92 64.9C44.44 68.02 55.77 63.89 61.81 54.72L75.28 63.59C67.33 75.63 53.64 82.6 39.23 81.96C24.82 81.31 11.81 73.14 4.97 60.44C-1.87 47.74 -1.54 32.38 5.86 19.99C13.25 7.6 26.6 0.01 41.03 0L41.03 0Z" />
	<path id="Layer" fill-rule="evenodd" class="shp0" d="M194.01 49.65C193.98 49.87 193.93 50.09 193.85 50.29C193.78 50.5 193.68 50.7 193.57 50.89C193.45 51.08 193.32 51.26 193.17 51.42C193 51.57 192.82 51.7 192.62 51.81C192.43 51.92 192.22 52.02 192.01 52.09C191.8 52.16 191.58 52.21 191.35 52.24C191.13 52.27 190.9 52.28 190.68 52.26L188.9 52.26L188.9 45.84L190.9 45.84C191.32 45.8 191.75 45.86 192.15 46C192.55 46.15 192.91 46.38 193.21 46.68C193.51 46.98 193.73 47.34 193.88 47.74C194.02 48.14 194.07 48.57 194.03 48.99C194.05 49.21 194.04 49.43 194.01 49.65ZM193.24 48.99C193.25 48.82 193.25 48.65 193.23 48.48C193.21 48.31 193.17 48.14 193.11 47.98C193.06 47.82 192.99 47.66 192.91 47.52C192.82 47.37 192.72 47.23 192.61 47.1C192.48 46.99 192.35 46.89 192.2 46.8C192.05 46.72 191.9 46.64 191.74 46.59C191.58 46.53 191.41 46.5 191.25 46.47C191.08 46.45 190.91 46.45 190.74 46.46L189.65 46.46L189.65 51.59L190.56 51.59C190.74 51.6 190.92 51.6 191.1 51.58C191.28 51.55 191.45 51.51 191.63 51.46C191.8 51.4 191.96 51.33 192.12 51.24C192.28 51.15 192.42 51.05 192.56 50.93C192.67 50.8 192.77 50.66 192.86 50.51C192.94 50.36 193.01 50.2 193.07 50.04C193.12 49.87 193.16 49.71 193.18 49.54C193.2 49.36 193.2 49.19 193.19 49.02L193.24 48.99Z" />
	<path id="Layer" fill-rule="evenodd" class="shp0" d="M199.27 52.26L198.47 50.26L195.89 50.26L195.1 52.26L194.34 52.26L196.88 45.81L197.51 45.81L200.03 52.26L199.27 52.26ZM198.27 49.54L197.52 47.54C197.42 47.29 197.32 46.98 197.22 46.61C197.2 46.69 197.18 46.77 197.16 46.85C197.14 46.92 197.12 47 197.09 47.08C197.07 47.16 197.05 47.23 197.02 47.31C196.99 47.39 196.97 47.46 196.94 47.54L196.18 49.54L198.27 49.54Z" />
	<path id="Layer" class="shp0" d="M202.28 52.26L201.53 52.26L201.53 46.5L199.53 46.5L199.53 45.84L204.35 45.84L204.35 46.5L202.35 46.5L202.28 52.26Z" />
	<path id="Layer" fill-rule="evenodd" class="shp0" d="M208.69 52.26L207.89 50.26L205.31 50.26L204.52 52.26L203.76 52.26L206.3 45.81L206.93 45.81L209.46 52.26L208.69 52.26ZM207.69 49.54L206.94 47.54C206.84 47.29 206.74 46.98 206.64 46.61C206.62 46.69 206.6 46.77 206.58 46.85C206.56 46.92 206.54 47 206.51 47.08C206.49 47.16 206.47 47.23 206.44 47.31C206.41 47.39 206.39 47.46 206.36 47.54L205.6 49.54L207.69 49.54Z" />
	<path id="Layer" class="shp0" d="M213.19 52.26L211.03 46.57L211.03 46.57C211.07 47.02 211.09 47.56 211.09 48.18L211.09 52.27L210.4 52.27L210.4 45.84L211.53 45.84L213.53 51.14L213.53 51.14L215.58 45.84L216.7 45.84L216.7 52.26L215.95 52.26L215.95 48.13C215.95 47.66 215.97 47.14 216.01 46.58L216.01 46.58L213.81 52.27L213.19 52.26Z" />
	<path id="Layer" class="shp0" d="M218.47 52.26L218.47 45.84L219.22 45.84L219.22 52.26L218.47 52.26Z" />
	<path id="Layer" class="shp0" d="M226.03 52.26L225.18 52.26L221.67 46.87L221.67 46.87C221.72 47.5 221.74 48.08 221.74 48.61L221.74 52.26L221.03 52.26L221.03 45.84L221.87 45.84L225.37 51.21L225.37 51.21C225.37 51.13 225.37 50.88 225.37 50.45C225.37 50.02 225.37 49.72 225.37 49.53L225.37 45.84L226.07 45.84L226.03 52.26Z" />
	<path id="Layer" class="shp0" d="M227.77 52.26L227.77 45.84L228.52 45.84L228.52 52.26L227.77 52.26Z" />
	<path id="Layer" class="shp0" d="M235.3 52.26L234.45 52.26L230.94 46.87L230.94 46.87C230.99 47.5 231.01 48.08 231.01 48.61L231.01 52.26L230.32 52.26L230.32 45.84L231.16 45.84L234.66 51.21L234.66 51.21C234.66 51.13 234.66 50.88 234.66 50.45C234.66 50.02 234.66 49.71 234.66 49.53L234.66 45.84L235.36 45.84L235.3 52.26Z" />
	<path id="Layer" class="shp0" d="M239.89 48.9L242.03 48.9L242.03 52.02C241.95 52.05 241.87 52.07 241.78 52.1C241.7 52.12 241.62 52.14 241.53 52.16C241.45 52.18 241.37 52.2 241.28 52.22C241.2 52.24 241.11 52.26 241.03 52.27C240.93 52.28 240.83 52.3 240.73 52.31C240.62 52.32 240.52 52.33 240.42 52.33C240.32 52.34 240.22 52.35 240.12 52.35C240.01 52.35 239.91 52.35 239.81 52.35C239.6 52.36 239.39 52.35 239.19 52.32C238.98 52.28 238.78 52.23 238.58 52.16C238.39 52.08 238.2 51.99 238.03 51.87C237.85 51.76 237.69 51.63 237.54 51.48C237.4 51.31 237.27 51.13 237.16 50.94C237.06 50.75 236.97 50.55 236.9 50.34C236.83 50.14 236.78 49.92 236.75 49.7C236.72 49.49 236.72 49.27 236.73 49.05C236.73 48.9 236.73 48.75 236.75 48.59C236.76 48.44 236.79 48.29 236.82 48.15C236.85 48 236.9 47.85 236.95 47.71C237 47.57 237.06 47.43 237.13 47.29C237.19 47.17 237.27 47.05 237.35 46.94C237.43 46.83 237.52 46.72 237.62 46.63C237.72 46.53 237.83 46.44 237.94 46.36C238.05 46.28 238.17 46.2 238.29 46.14C238.43 46.07 238.57 46.01 238.71 45.96C238.85 45.91 239 45.86 239.15 45.83C239.3 45.8 239.45 45.77 239.6 45.76C239.75 45.74 239.91 45.74 240.06 45.74C240.22 45.74 240.39 45.75 240.55 45.76C240.72 45.78 240.88 45.8 241.04 45.83C241.2 45.86 241.36 45.9 241.52 45.95C241.67 46 241.83 46.06 241.98 46.12L241.69 46.78C241.56 46.72 241.42 46.67 241.29 46.62C241.15 46.58 241.01 46.54 240.87 46.51C240.73 46.48 240.59 46.46 240.45 46.44C240.31 46.42 240.16 46.41 240.02 46.41C239.85 46.4 239.68 46.41 239.52 46.44C239.35 46.46 239.19 46.5 239.03 46.56C238.87 46.62 238.72 46.7 238.58 46.79C238.44 46.88 238.31 46.99 238.19 47.11C238.08 47.24 237.97 47.39 237.89 47.54C237.8 47.69 237.73 47.85 237.67 48.02C237.61 48.18 237.57 48.35 237.55 48.53C237.53 48.7 237.52 48.88 237.53 49.05C237.52 49.23 237.52 49.41 237.54 49.59C237.56 49.77 237.6 49.94 237.65 50.11C237.71 50.28 237.78 50.45 237.87 50.61C237.95 50.76 238.05 50.91 238.17 51.05C238.29 51.17 238.43 51.27 238.57 51.36C238.72 51.45 238.87 51.53 239.03 51.58C239.19 51.64 239.36 51.68 239.53 51.7C239.7 51.73 239.87 51.73 240.04 51.72C240.15 51.72 240.26 51.72 240.37 51.71C240.48 51.71 240.59 51.7 240.7 51.68C240.81 51.67 240.92 51.66 241.03 51.64C241.13 51.62 241.24 51.6 241.35 51.57L241.35 49.57L239.91 49.57L239.89 48.9Z" />
	<path id="Layer" fill-rule="evenodd" class="shp0" d="M192.93 58.85C192.94 58.99 192.93 59.13 192.9 59.27C192.88 59.41 192.83 59.55 192.78 59.68C192.72 59.81 192.64 59.93 192.56 60.05C192.47 60.16 192.37 60.26 192.26 60.35C192.12 60.44 191.98 60.53 191.82 60.6C191.67 60.67 191.52 60.73 191.35 60.77C191.19 60.81 191.03 60.85 190.86 60.86C190.69 60.88 190.53 60.88 190.36 60.87L189.6 60.87L189.6 63.4L188.85 63.4L188.85 56.98L190.52 56.98C192.13 56.98 192.93 57.6 192.93 58.85ZM189.6 60.23L190.27 60.23C190.39 60.24 190.52 60.24 190.64 60.23C190.77 60.22 190.89 60.21 191.01 60.18C191.14 60.15 191.26 60.12 191.37 60.07C191.49 60.03 191.6 59.97 191.71 59.91C191.78 59.85 191.85 59.78 191.91 59.71C191.97 59.63 192.01 59.55 192.05 59.46C192.09 59.38 192.12 59.29 192.13 59.19C192.15 59.1 192.16 59 192.15 58.91C192.16 58.82 192.15 58.73 192.14 58.64C192.12 58.55 192.09 58.47 192.06 58.38C192.02 58.3 191.98 58.22 191.92 58.15C191.86 58.08 191.8 58.02 191.73 57.96C191.63 57.9 191.53 57.85 191.43 57.81C191.32 57.76 191.21 57.73 191.1 57.7C190.99 57.68 190.88 57.66 190.77 57.65C190.66 57.64 190.54 57.64 190.43 57.65L189.6 57.65L189.6 60.23Z" />
	<path id="Layer" class="shp0" d="M194.27 63.41L194.27 56.98L195.03 56.98L195.03 62.73L197.86 62.73L197.86 63.41L194.27 63.41Z" />
	<path id="Layer" fill-rule="evenodd" class="shp0" d="M203.03 63.41L202.23 61.41L199.65 61.41L198.86 63.41L198.03 63.41L200.57 56.96L201.2 56.96L203.73 63.41L203.03 63.41ZM202.03 60.69L201.28 58.69C201.18 58.44 201.08 58.13 200.98 57.76C200.96 57.84 200.94 57.92 200.92 58C200.9 58.07 200.88 58.15 200.85 58.23C200.83 58.31 200.81 58.38 200.78 58.46C200.75 58.54 200.73 58.61 200.7 58.69L199.94 60.69L202.03 60.69Z" />
	<path id="Layer" class="shp0" d="M206.03 63.41L205.28 63.41L205.28 57.65L203.28 57.65L203.28 56.99L208.03 56.99L208.03 57.65L206.03 57.65L206.03 63.41Z" />
	<path id="Layer" class="shp0" d="M209.74 63.41L209.03 63.41L209.03 56.98L212.61 56.98L212.61 57.64L209.78 57.64L209.78 59.99L212.44 59.99L212.44 60.65L209.78 60.65L209.74 63.41Z" />
	<path id="Layer" fill-rule="evenodd" class="shp0" d="M219.21 60.19C219.22 60.41 219.22 60.63 219.19 60.84C219.16 61.06 219.11 61.27 219.05 61.48C218.98 61.69 218.89 61.89 218.79 62.08C218.69 62.27 218.57 62.45 218.43 62.62C218.29 62.77 218.14 62.9 217.97 63.02C217.81 63.13 217.63 63.23 217.44 63.3C217.26 63.38 217.06 63.43 216.86 63.47C216.66 63.5 216.46 63.51 216.26 63.5C216.05 63.52 215.85 63.51 215.64 63.48C215.44 63.45 215.24 63.39 215.05 63.32C214.85 63.24 214.67 63.15 214.5 63.03C214.33 62.91 214.17 62.78 214.03 62.63C213.89 62.46 213.77 62.28 213.67 62.08C213.57 61.89 213.48 61.69 213.42 61.48C213.35 61.27 213.31 61.05 213.28 60.84C213.25 60.62 213.25 60.4 213.26 60.18C213.25 59.96 213.25 59.75 213.28 59.53C213.31 59.31 213.35 59.1 213.42 58.89C213.48 58.69 213.57 58.48 213.67 58.29C213.77 58.1 213.89 57.92 214.03 57.75C214.17 57.6 214.33 57.47 214.5 57.36C214.66 57.25 214.85 57.15 215.03 57.08C215.22 57 215.42 56.95 215.62 56.92C215.82 56.89 216.03 56.88 216.23 56.89C216.43 56.88 216.63 56.89 216.83 56.92C217.03 56.96 217.22 57.01 217.41 57.09C217.59 57.16 217.77 57.26 217.94 57.38C218.1 57.49 218.25 57.62 218.39 57.77C218.53 57.94 218.65 58.12 218.76 58.31C218.87 58.5 218.96 58.7 219.03 58.9C219.1 59.11 219.15 59.32 219.18 59.54C219.21 59.75 219.22 59.97 219.21 60.19ZM214.09 60.72C214.11 60.9 214.14 61.07 214.19 61.24C214.24 61.41 214.3 61.58 214.38 61.74C214.46 61.89 214.55 62.05 214.65 62.19C214.86 62.4 215.11 62.57 215.39 62.69C215.67 62.81 215.96 62.86 216.27 62.86C216.57 62.86 216.86 62.81 217.14 62.69C217.42 62.57 217.67 62.4 217.88 62.19C218.06 61.89 218.19 61.57 218.29 61.24C218.38 60.91 218.43 60.56 218.43 60.21C218.43 59.87 218.38 59.52 218.29 59.19C218.19 58.86 218.06 58.54 217.88 58.24C217.78 58.13 217.67 58.02 217.55 57.93C217.43 57.85 217.29 57.77 217.15 57.71C217.02 57.66 216.87 57.61 216.72 57.59C216.57 57.57 216.42 57.56 216.27 57.57C216.12 57.56 215.97 57.57 215.82 57.59C215.67 57.62 215.52 57.66 215.38 57.72C215.24 57.78 215.11 57.85 214.99 57.94C214.86 58.03 214.75 58.13 214.65 58.24C214.55 58.38 214.46 58.53 214.39 58.68C214.31 58.84 214.25 59 214.2 59.17C214.15 59.33 214.12 59.5 214.1 59.67C214.08 59.84 214.08 60.02 214.09 60.19C214.08 60.37 214.08 60.54 214.09 60.72Z" />
	<path id="Layer" fill-rule="evenodd" class="shp0" d="M221.39 60.74L221.39 63.41L220.64 63.41L220.64 56.98L222.4 56.98C222.55 56.97 222.71 56.97 222.86 56.98C223.01 56.99 223.16 57.02 223.31 57.06C223.46 57.1 223.61 57.15 223.75 57.21C223.89 57.27 224.02 57.35 224.15 57.43C224.25 57.51 224.33 57.61 224.41 57.71C224.48 57.81 224.54 57.93 224.59 58.04C224.64 58.16 224.67 58.28 224.69 58.41C224.71 58.54 224.72 58.66 224.71 58.79C224.72 58.98 224.69 59.18 224.63 59.36C224.57 59.55 224.49 59.72 224.37 59.88C224.25 60.03 224.11 60.17 223.95 60.28C223.79 60.38 223.61 60.46 223.42 60.51L225.16 63.4L224.28 63.4L222.72 60.73L221.39 60.74ZM221.39 60.1L222.39 60.1C222.49 60.11 222.59 60.11 222.7 60.1C222.8 60.09 222.9 60.07 223 60.05C223.1 60.02 223.19 59.99 223.28 59.94C223.38 59.9 223.47 59.85 223.55 59.79C223.61 59.73 223.67 59.66 223.72 59.59C223.77 59.52 223.81 59.44 223.84 59.36C223.87 59.28 223.9 59.2 223.91 59.11C223.92 59.02 223.93 58.94 223.92 58.85C223.93 58.76 223.93 58.68 223.91 58.59C223.9 58.51 223.88 58.42 223.84 58.34C223.81 58.26 223.77 58.19 223.72 58.12C223.67 58.05 223.61 57.99 223.54 57.93C223.45 57.88 223.36 57.83 223.26 57.79C223.16 57.75 223.06 57.72 222.96 57.69C222.85 57.67 222.75 57.65 222.65 57.65C222.54 57.64 222.43 57.64 222.33 57.65L221.33 57.65L221.39 60.1Z" />
	<path id="Layer" class="shp0" d="M229.03 63.41L226.85 57.71L226.85 57.71C226.89 58.16 226.91 58.7 226.91 59.32L226.91 63.41L226.22 63.41L226.22 56.98L227.35 56.98L229.35 62.28L229.35 62.28L231.4 56.98L232.52 56.98L232.52 63.4L231.77 63.4L231.77 59.27C231.77 58.8 231.79 58.28 231.83 57.72L231.83 57.72L229.63 63.41L229.03 63.41Z" />
</svg>